<?xml version="1.0" encoding="utf-8"?>
<!-- Generator: Adobe Illustrator 18.0.0, SVG Export Plug-In . SVG Version: 6.00 Build 0)  -->
<!DOCTYPE svg PUBLIC "-//W3C//DTD SVG 1.1//EN" "http://www.w3.org/Graphics/SVG/1.1/DTD/svg11.dtd">
<svg version="1.1" id="Layer_1" xmlns="http://www.w3.org/2000/svg" xmlns:xlink="http://www.w3.org/1999/xlink" x="0px" y="0px"
	 viewBox="0 0 30 30" enable-background="new 0 0 30 30" xml:space="preserve">
<g>
	<path class="add-icon_elem" d="M20,26h-3c-0.4,0-0.7-0.1-1-0.3V30h4.3c-0.2-0.3-0.3-0.6-0.3-1V26z"/>
	<path class="add-icon_elem" d="M22,12v-2h-9V8c3-2.9,6,2.9,8.9,0c0-2.3,0-4.7,0-7c-3,2.9-6-2.9-8.9,0V0h-2v10H2v2H0v18h8v-5h7.3
		c-0.2-0.3-0.3-0.6-0.3-1v-2c0-0.4,0.1-0.7,0.3-1H13v-3h7v-1h-7v-3h9v1h2v-3H22z M11,21H2v-3h9V21z M11,17H2v-3h9V17z"/>
</g>
<path class="add-icon_plus" d="M29,21h-4v-4c0-0.5-0.5-1-1-1h-2c-0.5,0-1,0.5-1,1v4h-4c-0.5,0-1,0.5-1,1v2c0,0.5,0.5,1,1,1h4v4
	c0,0.5,0.5,1,1,1h2c0.5,0,1-0.5,1-1v-4h4c0.5,0,1-0.5,1-1v-2C30,21.5,29.5,21,29,21z"/>
</svg>
