<?xml version="1.0" encoding="utf-8"?>
<!-- Generator: Adobe Illustrator 18.0.0, SVG Export Plug-In . SVG Version: 6.00 Build 0)  -->
<!DOCTYPE svg PUBLIC "-//W3C//DTD SVG 1.1//EN" "http://www.w3.org/Graphics/SVG/1.1/DTD/svg11.dtd">
<svg version="1.1" id="Layer_1" xmlns="http://www.w3.org/2000/svg" xmlns:xlink="http://www.w3.org/1999/xlink" x="0px" y="0px"
	 viewBox="0 0 20 20" enable-background="new 0 0 20 20" xml:space="preserve">
<rect x="9" y="5" width="2" height="6"/>
<rect x="5.1" y="9" width="4.9" height="2"/>
<path  d="M11,19c-1.1,0-2.1-0.6-2.6-1.6c-3.4-0.7-6-3.8-6-7.4c0-4.2,3.4-7.6,7.6-7.6c3.6,0,6.7,2.6,7.4,6
	C18.4,8.9,19,9.9,19,11c0.3,0,0.5,0,0.8,0.1c0-0.4,0.1-0.7,0.1-1.1c0-5.4-4.4-9.8-9.8-9.8S0.2,4.6,0.2,10s4.4,9.8,9.8,9.8
	c0.4,0,0.7,0,1.1-0.1C11,19.5,11,19.3,11,19z"/>
<path  d="M19,13h-2v-2c0-0.5-0.5-1-1-1h-2c-0.5,0-1,0.5-1,1v2h-2c-0.5,0-1,0.5-1,1v2c0,0.5,0.5,1,1,1h2v2
	c0,0.5,0.5,1,1,1h2c0.5,0,1-0.5,1-1v-2h2c0.5,0,1-0.5,1-1v-2C20,13.5,19.5,13,19,13z"/>
</svg>
