<?xml version="1.0" encoding="utf-8"?>
<!-- Generator: Adobe Illustrator 18.0.0, SVG Export Plug-In . SVG Version: 6.00 Build 0)  -->
<!DOCTYPE svg PUBLIC "-//W3C//DTD SVG 1.1//EN" "http://www.w3.org/Graphics/SVG/1.1/DTD/svg11.dtd">
<svg version="1.1" id="Layer_1" xmlns="http://www.w3.org/2000/svg" xmlns:xlink="http://www.w3.org/1999/xlink" x="0px" y="0px"
	 viewBox="0 0 29 30" enable-background="new 0 0 29 30" xml:space="preserve">
<path class="add-icon_elem" d="M24,11v-1c0-1.7-1-3-2.1-4.1l-3.8-3.8C17,1,15.7,0,14,0h-1c1.1,0,2,0.9,2,2v4c0,2,1,3,3,3h4
	C23.1,9,24,9.9,24,11z"/>
<path class="add-icon_elem" d="M19,29v-3h-3c-1.1,0-2-0.9-2-2v-2c0-1.1,0.9-2,2-2h3v-3c0-1.1,0.9-2,2-2h2c0.4,0,0.7,0.1,1,0.3V11
	c0-0.6-0.4-1-1-1h-6c-1.7,0-3-1.3-3-3V1c0-0.6-0.4-1-1-1H3C1.3,0,0,1.3,0,3v24c0,1.6,1.3,3,3,3h16.3C19.1,29.7,19,29.4,19,29z"/>
<path class="add-icon_plus" d="M28,21h-4v-4c0-0.5-0.5-1-1-1h-2c-0.5,0-1,0.5-1,1v4h-4c-0.5,0-1,0.5-1,1v2c0,0.5,0.5,1,1,1h4v4
	c0,0.5,0.5,1,1,1h2c0.5,0,1-0.5,1-1v-4h4c0.5,0,1-0.5,1-1v-2C29,21.5,28.5,21,28,21z"/>
</svg>
