<?xml version="1.0" encoding="utf-8"?>
<!-- Generator: Adobe Illustrator 18.0.0, SVG Export Plug-In . SVG Version: 6.00 Build 0)  -->
<!DOCTYPE svg PUBLIC "-//W3C//DTD SVG 1.1//EN" "http://www.w3.org/Graphics/SVG/1.1/DTD/svg11.dtd">
<svg version="1.1" id="Layer_1" xmlns="http://www.w3.org/2000/svg" xmlns:xlink="http://www.w3.org/1999/xlink" x="0px" y="0px"
	 viewBox="0 0 30 26" enable-background="new 0 0 30 26" xml:space="preserve">
<g>
	<path class="add-icon_elem" d="M26,22v2h2.5c0.2,0,0.4-0.5,0.4-1.2l0-0.8H26z"/>
	<path class="add-icon_elem" d="M15,20v-2c0-1.1,0.9-2,2-2h3v-3c0-1.1,0.9-2,2-2h2c0.9,0,1.7,0.6,1.9,1.4c0.7,0.5,1.1,1.2,1.1,2.1
		c0,0.6-0.2,1.1-0.5,1.5H29c0.1,0,0.3,0,0.4,0c-0.1-2.2-0.8-4.3-1.6-6.2l1.6-0.3C29.7,9.5,30,9.2,30,8.8V7.7c0-0.3-0.3-0.6-0.6-0.6
		h-2.6c-0.1,0-0.3,0.1-0.4,0.2c-0.8-1.3-1.7-2.4-2.3-3.1S21.9,3,19.9,2.7l-1-2.4C17.1,0.1,16.3,0,15,0c-1.3,0-2.1,0.1-3.8,0.3
		l-1,2.4C8.1,3,6.5,3.5,5.8,4.2C5.2,4.8,4.3,5.9,3.5,7.2C3.4,7.1,3.3,7.1,3.1,7.1H0.6C0.3,7.1,0,7.3,0,7.7v1.2
		c0,0.3,0.3,0.6,0.6,0.7l1.6,0.3C0.8,12.9,0,16.7,1.2,20.6v2.3c0,0.6,0.2,1.2,0.4,1.2h2.9c0.2,0,0.4-0.5,0.4-1.2V21
		c2.7-0.2,6.4-0.1,10.1-0.1c0.1,0,0.2,0,0.2,0C15.1,20.6,15,20.3,15,20z M5.5,17C4.1,17,3,15.9,3,14.5C3,13.1,4.1,12,5.5,12
		S8,13.1,8,14.5C8,15.9,6.9,17,5.5,17z M3.1,10.5C4.2,7.9,5.7,5.9,6.6,5c0.7-0.7,3.8-1.4,8.4-1.4c4.5,0,7.7,0.7,8.4,1.4
		c0.9,1,2.5,3,3.6,5.5c-2.4,0.3-7.2-0.4-11.9-0.4C10.3,10.2,5.5,10.8,3.1,10.5z"/>
</g>
<path class="add-icon_plus" d="M29,17h-4v-4c0-0.5-0.5-1-1-1h-2c-0.5,0-1,0.5-1,1v4h-4c-0.5,0-1,0.5-1,1v2c0,0.5,0.5,1,1,1h4v4
	c0,0.5,0.5,1,1,1h2c0.5,0,1-0.5,1-1v-4h4c0.5,0,1-0.5,1-1v-2C30,17.5,29.5,17,29,17z"/>
</svg>
