<?xml version="1.0" encoding="utf-8"?>
<!-- Generator: Adobe Illustrator 18.0.0, SVG Export Plug-In . SVG Version: 6.00 Build 0)  -->
<!DOCTYPE svg PUBLIC "-//W3C//DTD SVG 1.1//EN" "http://www.w3.org/Graphics/SVG/1.1/DTD/svg11.dtd">
<svg version="1.1" id="Layer_1" xmlns="http://www.w3.org/2000/svg" xmlns:xlink="http://www.w3.org/1999/xlink" x="0px" y="0px"
	 viewBox="0 0 30 30" enable-background="new 0 0 30 30" xml:space="preserve">
<circle class="add-icon_elem" cx="14" cy="7" r="6.9"/>
<path class="add-icon_elem" d="M20,29v-3h-3c-1.1,0-2-0.9-2-2v-2c0-1.1,0.9-2,2-2h3v-3c0-0.1,0-0.1,0-0.2l-2.3-0.9c-2-1.1-5.3-1.1-7.3,0
	l-6.6,2.7c-2,1.1-3.7,5.1-3.7,7.4C0.1,28.2,2,30,4.3,30h16C20.1,29.7,20,29.4,20,29z"/>
<path class="add-icon_plus" d="M29,21h-4v-4c0-0.5-0.5-1-1-1h-2c-0.5,0-1,0.5-1,1v4h-4c-0.5,0-1,0.5-1,1v2c0,0.5,0.5,1,1,1h4v4
	c0,0.5,0.5,1,1,1h2c0.5,0,1-0.5,1-1v-4h4c0.5,0,1-0.5,1-1v-2C30,21.5,29.5,21,29,21z"/>
</svg>
