<?xml version="1.0" encoding="utf-8"?>
<!-- Generator: Adobe Illustrator 18.0.0, SVG Export Plug-In . SVG Version: 6.00 Build 0)  -->
<!DOCTYPE svg PUBLIC "-//W3C//DTD SVG 1.1//EN" "http://www.w3.org/Graphics/SVG/1.1/DTD/svg11.dtd">
<svg version="1.1" id="Layer_1" xmlns="http://www.w3.org/2000/svg" xmlns:xlink="http://www.w3.org/1999/xlink" x="0px" y="0px"
	 viewBox="0 0 24 24" enable-background="new 0 0 24 24" xml:space="preserve">
<rect x="15" y="9" width="3" height="3"/>
<rect x="15" y="15" width="3" height="3"/>
<path d="M23,3h-8v3h6v15h-8v3h10c0.5,0,1-0.5,1-1V4C24,3.5,23.5,3,23,3z"/>
<path d="M14,0H1C0.5,0,0,0.5,0,1v22c0,0.5,0.5,1,1,1h13c0.5,0,1-0.5,1-1V1C15,0.5,14.5,0,14,0z M6,18H3v-3h3V18z
	 M6,12H3V9h3V12z M6,6H3V3h3V6z M12,18H9v-3h3V18z M12,12H9V9h3V12z M12,6H9V3h3V6z"/>
</svg>
