<?xml version="1.0" encoding="utf-8"?>
<!-- Generator: Adobe Illustrator 18.0.0, SVG Export Plug-In . SVG Version: 6.00 Build 0)  -->
<!DOCTYPE svg PUBLIC "-//W3C//DTD SVG 1.1//EN" "http://www.w3.org/Graphics/SVG/1.1/DTD/svg11.dtd">
<svg version="1.1" id="Layer_1" xmlns="http://www.w3.org/2000/svg" xmlns:xlink="http://www.w3.org/1999/xlink" x="0px" y="0px"
	 viewBox="0 0 23.9 23.9" enable-background="new 0 0 23.9 23.9" xml:space="preserve">
<path id="path27_1_" d="M23.9,0.7c0-0.2-0.1-0.4-0.2-0.5C23.5,0,23.3,0,23.1,0c-1.1,0.1-2.1,0.6-2.9,1.3l-4.2,4.2
	L1.9,3.8L0,5.7l11,4.9l-2.8,2.8c-0.3,0.3-0.5,0.6-0.6,0.9l-4.7-0.9l-1.5,1.5l5.3,2.3l2.3,5.3l1.5-1.5l-0.9-4.7
	c0.4-0.1,0.7-0.3,0.9-0.6l2.8-2.8l4.9,11l1.9-1.9L18.4,7.7l4.2-4.2C23.3,2.8,23.8,1.8,23.9,0.7"/>
</svg>
