<?xml version="1.0" encoding="utf-8"?>
<!-- Generator: Adobe Illustrator 18.0.0, SVG Export Plug-In . SVG Version: 6.00 Build 0)  -->
<!DOCTYPE svg PUBLIC "-//W3C//DTD SVG 1.1//EN" "http://www.w3.org/Graphics/SVG/1.1/DTD/svg11.dtd">
<svg version="1.1" id="Layer_1" xmlns="http://www.w3.org/2000/svg" xmlns:xlink="http://www.w3.org/1999/xlink" x="0px" y="0px"
	 viewBox="0 0 9 22" enable-background="new 0 0 9 22" xml:space="preserve">
<path d="M8.7,17.3l-3-3c-0.4-0.4-1-0.4-1.4,0s-0.4,1,0,1.4L5.6,17H3c-0.1,0-0.5,0-0.8-0.3C2.2,16.7,2,16.5,2,16V3
	c0-0.2,0.1-1,1-1h4V0H3C0.8,0,0,1.8,0,3v13c0,1.1,0.5,1.8,0.8,2.2C1.6,19,2.7,19,3,19c0,0,0,0,0,0h2.6l-1.3,1.3
	c-0.4,0.4-0.4,1,0,1.4C4.5,21.9,4.7,22,5,22s0.5-0.1,0.7-0.3l3-3C9.1,18.3,9.1,17.7,8.7,17.3z"/>
</svg>
